<?xml version="1.0" encoding="UTF-8" standalone="no"?>
<svg
   shape-rendering="geometricPrecision"
   text-rendering="geometricPrecision"
   image-rendering="optimizeQuality"
   fill-rule="evenodd"
   clip-rule="evenodd"
   viewBox="0 0 118.29231 81.065599"
   version="1.1"
   id="svg134"
   sodipodi:docname="movie-reel-icon.svg"
   inkscape:export-filename="movie-reel-icon.png"
   inkscape:export-xdpi="96"
   inkscape:export-ydpi="96"
   inkscape:version="1.2 (dc2aeda, 2022-05-15)"
   width="118.29231"
   height="81.065598"
   xmlns:inkscape="http://www.inkscape.org/namespaces/inkscape"
   xmlns:sodipodi="http://sodipodi.sourceforge.net/DTD/sodipodi-0.dtd"
   xmlns="http://www.w3.org/2000/svg"
   xmlns:svg="http://www.w3.org/2000/svg">
  <defs
     id="defs138" />
  <sodipodi:namedview
     id="namedview136"
     pagecolor="#ffffff"
     bordercolor="#000000"
     borderopacity="0.25"
     inkscape:showpageshadow="2"
     inkscape:pageopacity="0.0"
     inkscape:pagecheckerboard="0"
     inkscape:deskcolor="#d1d1d1"
     showgrid="false"
     inkscape:zoom="0.65533712"
     inkscape:cx="-171.66737"
     inkscape:cy="180.06"
     inkscape:window-width="1309"
     inkscape:window-height="456"
     inkscape:window-x="0"
     inkscape:window-y="38"
     inkscape:window-maximized="0"
     inkscape:current-layer="svg134" />
  <path
     d="M 41.945668,6.368643 C 61.280468,6.5996901 76.771766,22.08185 76.546281,40.951132 76.320824,59.818167 60.463985,74.92572 41.129183,74.694674 21.792076,74.463599 6.3007858,58.98144 6.5262431,40.114406 6.7517275,21.245124 22.60856,6.1375682 41.945668,6.368643 Z m 0.07606,-6.3655415 c 11.466638,0.13702408 21.797196,4.7989321 29.227117,12.2221935 7.427605,7.423235 11.956836,17.61235 11.8231,28.803817 -0.01999,1.672419 -0.145796,3.318809 -0.365804,4.934807 0.615297,-0.908894 1.237258,-1.795195 1.872754,-2.656573 l 0.02116,-0.02901 0.0094,-0.01329 0.01175,-0.01563 c 2.708462,-3.668641 5.598231,-6.871362 8.765665,-9.564244 1.316903,-1.12338 2.68116,-2.156147 4.099681,-3.095963 0.05589,-0.04435 0.116375,-0.08416 0.179075,-0.119438 5.434184,-3.568534 11.636614,-5.786156 18.960514,-6.47981 a 1.5269171,1.4899762 0.68464051 0 1 1.66118,1.341318 l 0.005,0.157645 -0.2332,19.907005 c -0.01,0.82383 -0.70059,1.481936 -1.54484,1.471848 l -0.1729,-0.01112 C 100.70541,46.19029 91.883531,53.507145 83.063971,60.824024 78.729931,64.41921 74.393571,68.014367 69.209,70.773192 61.744086,77.282315 51.855566,81.19158 41.053266,81.062496 29.584464,80.925419 19.253904,76.263509 11.826291,68.840276 4.3983951,61.414787 -0.13082824,51.225671 0.00288079,40.036452 0.13661669,28.844986 4.908028,18.767011 12.510905,11.523388 20.113785,4.2797656 30.552798,-0.13395011 42.021733,0.0031015 Z M 79.309236,57.433815 c -0.764623,1.6275 -1.63698,3.197434 -2.607725,4.698652 1.481243,-1.168692 2.932932,-2.373758 4.3846,-3.578822 2.225287,-1.846424 4.450575,-3.692849 6.780565,-5.420956 L 85.472824,47.26892 c -2.024119,2.967682 -3.957139,6.226864 -5.840311,9.754535 -0.08495,0.15882 -0.195027,0.297081 -0.323277,0.41036 z m -13.102355,11.83568 c 0.141657,-0.270705 0.368207,-0.502125 0.665264,-0.649406 l 0.264606,-0.134157 c 0.421982,-0.368658 0.834822,-0.744182 1.238555,-1.13107 C 75.406425,60.658207 79.818099,51.339096 79.941749,40.991715 80.065424,30.64208 75.877675,21.222457 69.008616,14.357447 62.14183,7.4947159 52.589158,3.184289 41.985233,3.0575742 31.379001,2.9308319 21.728361,7.0117827 14.697243,13.708437 7.6684036,20.407367 3.256756,29.724227 3.1330799,40.073859 3.0094311,50.42124 7.197153,59.843112 14.063933,66.705844 c 6.869061,6.865011 16.419452,11.173158 27.025685,11.299901 9.552071,0.114137 18.33054,-3.184799 25.117263,-8.73625 z M 90.40752,51.328306 c 2.816548,-1.902391 5.828928,-3.588579 9.198763,-4.878781 L 97.356238,34.344844 c -0.668102,0.50079 -1.324974,1.026481 -1.970569,1.574817 -2.801545,2.384333 -5.386901,5.210238 -7.827103,8.438591 z m 12.11279,-5.863761 c 3.68108,-1.07937 7.78793,-1.685399 12.50268,-1.615551 l 0.19963,-16.70617 c -5.7305,0.757718 -10.69841,2.566866 -15.11927,5.319058 z M 48.164249,24.036239 c -1.155585,3.455322 -4.507318,5.932132 -8.431018,5.885245 -3.312432,-0.03957 -6.174373,-1.868004 -7.632846,-4.535119 2.809141,-1.668354 6.117204,-2.614858 9.648766,-2.572656 2.265182,0.02706 4.42634,0.458115 6.415098,1.22253 z m 5.291774,3.136151 c 3.875668,3.294824 6.302106,8.168446 6.237471,13.577355 -0.003,0.247599 -0.01063,0.495142 -0.025,0.740354 -4.769351,-0.133532 -8.564663,-3.974447 -8.508824,-8.647312 0.02618,-2.190123 0.891941,-4.17436 2.296349,-5.670397 z m 4.641932,20.642879 c -2.266507,4.909842 -6.7565,8.620227 -12.205169,9.926111 -0.198866,-0.734025 -0.30272,-1.502931 -0.293225,-2.297499 0.05644,-4.722386 4.023559,-8.502054 8.86303,-8.444222 1.300978,0.01546 2.531757,0.307153 3.635364,0.81561 z M 39.405404,58.127606 C 33.790843,57.484201 28.972024,54.346949 26.123016,49.891507 a 8.7252733,8.514182 0.68464075 0 1 4.67517,-1.252092 c 4.839475,0.05782 8.715145,3.931217 8.658713,8.653605 -0.0034,0.281362 -0.02045,0.56031 -0.05149,0.834586 z M 23.993154,45.104725 a 18.155759,17.716513 0.6846413 0 1 -0.611815,-4.788904 c 0.04955,-4.146154 1.552924,-7.939504 4.034092,-10.928741 2.185742,1.656001 3.580462,4.252566 3.54571,7.160727 -0.0497,4.159662 -3.009437,7.618188 -6.967987,8.556918 z m 15.9622,-33.771162 c 5.679104,0.06786 10.234104,4.624737 10.167935,10.161946 -0.03311,2.770858 -1.214173,5.269105 -3.0997,7.063308 -1.880906,1.794259 -4.468615,2.886695 -7.308164,2.852763 -2.837251,-0.0339 -5.3935,-1.18781 -7.233305,-3.026531 -1.844415,-1.838774 -2.96775,-4.364559 -2.934639,-7.135417 0.03304,-2.764102 1.216348,-5.257821 3.099623,-7.056553 l 0.0045,-0.0045 c 1.89022,-1.796391 4.470997,-2.88891 7.303639,-2.855061 z m 20.082832,11.574881 c 2.84187,0.03395 5.400414,1.187892 7.240224,3.026611 l 0.082,0.08878 c 1.791441,1.831389 2.878326,4.318466 2.845726,7.046556 -0.06625,5.543964 -4.726431,9.98171 -10.407848,9.913819 -2.83955,-0.03394 -5.398105,-1.187865 -7.237909,-3.026585 -1.839798,-1.83872 -2.960829,-4.364478 -2.927744,-7.133083 0.03307,-2.768606 1.214091,-5.262353 3.097308,-7.056582 1.883298,-1.800985 4.471001,-2.893419 7.308246,-2.859515 z m -5.557788,22.60112 c 2.839546,0.03394 5.400377,1.190143 7.240207,3.026611 1.837499,1.838692 2.960836,4.364477 2.927725,7.135336 -0.03311,2.770854 -1.216462,5.266825 -3.097369,7.061084 l -0.09094,0.07995 c -1.878048,1.747016 -4.428463,2.808381 -7.219568,2.775027 -2.83264,-0.03384 -5.388861,-1.190005 -7.233281,-3.02878 l -0.0045,-0.0068 c -1.842052,-1.84325 -2.963161,-4.362253 -2.930131,-7.126357 0.03306,-2.766356 1.2164,-5.262325 3.101947,-7.058778 1.880938,-1.79651 4.466365,-2.891223 7.305923,-2.857292 z M 30.815993,47.14932 c 2.841863,0.03395 5.400421,1.187892 7.240225,3.026612 1.839805,1.83872 2.960858,4.362227 2.927721,7.135335 -0.03306,2.766354 -1.214069,5.2601 -3.097313,7.056583 -1.88327,1.798732 -4.468697,2.893446 -7.310562,2.859487 -2.837239,-0.03391 -5.398079,-1.190116 -7.237884,-3.028836 l -0.08199,-0.08877 c -1.791445,-1.831389 -2.878329,-4.318467 -2.845757,-7.044305 0.03311,-2.770857 1.214178,-5.269106 3.097392,-7.063335 1.883217,-1.794231 4.46862,-2.886694 7.308167,-2.852762 z M 21.944069,26.028162 c 2.943356,0.03518 5.59828,1.233032 7.506475,3.140105 1.905892,1.907047 3.071986,4.52339 3.037637,7.397789 -0.03432,2.872145 -1.262631,5.46213 -3.213548,7.323088 -1.953222,1.860931 -4.636013,2.995005 -7.579369,2.959831 -2.938741,-0.03513 -5.59136,-1.232948 -7.501865,-3.140049 l -0.0046,-0.0068 c -1.910397,-1.911605 -3.071898,-4.525645 -3.037657,-7.391039 0.03427,-2.867643 1.260236,-5.455403 3.213488,-7.318585 l 0.0047,-0.0045 c 1.96018,-1.86307 4.63833,-2.994947 7.574765,-2.959857 z M 41.58607,36.460907 c 2.304399,0.02752 4.148734,1.873067 4.121863,4.121713 -0.02684,2.246397 -1.914753,4.047325 -4.219153,4.019787 -2.304399,-0.02753 -4.151044,-1.873092 -4.1242,-4.119488 0.02688,-2.248648 1.91709,-4.049548 4.22149,-4.022012 z"
     id="path132"
     style="stroke-width:0.227878" />
</svg>
